<?xml version="1.0" encoding="UTF-8" standalone="no"?>
<svg
   xmlns:dc="http://purl.org/dc/elements/1.1/"
   xmlns:cc="http://creativecommons.org/ns#"
   xmlns:rdf="http://www.w3.org/1999/02/22-rdf-syntax-ns#"
   xmlns:svg="http://www.w3.org/2000/svg"
   xmlns="http://www.w3.org/2000/svg"
   height="103.7"
   width="362.79999"
   xml:space="preserve"
   viewBox="0 0 362.79998 103.7"
   y="0px"
   x="0px"
   id="Layer_1"
   version="1.1"><metadata
     id="metadata15"><rdf:RDF><cc:Work
         rdf:about=""><dc:format>image/svg+xml</dc:format><dc:type
           rdf:resource="http://purl.org/dc/dcmitype/StillImage" /><dc:title></dc:title></cc:Work></rdf:RDF></metadata><defs
     id="defs13" /><style
     id="style2"
     type="text/css">
	.st0{fill:#FFFFFF;}
</style><g
     transform="translate(-239.5,-245.8)"
     id="g8"><rect
       id="rect4"
       height="103.7"
       width="362.79999"
       y="245.8"
       x="239.5" /><path
       style="fill:#ffffff"
       id="path6"
       d="m 586.1,320.2 c -0.7,0.2 -1.3,0.3 -1.9,0.3 -2.1,0 -3.1,-0.9 -3.1,-3.5 v -19.7 c 0,-10.4 -8.3,-15.4 -18,-15.4 -7.4,0 -11.5,0.9 -19.4,4.1 l -1.8,10.4 10.4,1.1 1.5,-5.1 c 2.1,-1.1 4.2,-1.3 6.9,-1.3 7.3,0 7.4,5.5 7.4,10.2 v 1.5 c -2.3,-0.3 -4.9,-0.4 -7.4,-0.4 -10.4,0 -21.1,2.6 -21.1,13.8 0,9.5 7.4,13 14,13 7.3,0 12,-4.4 14.6,-9.1 0.6,5.5 3.9,9.1 10,9.1 2.8,0 5.7,-0.8 8.2,-2.1 z m -27.9,-0.3 c -3.9,0 -5.3,-2.3 -5.3,-5.2 0,-4.9 4,-6.2 8.7,-6.2 2.1,0 4.4,0.3 6.5,0.6 -0.4,7.5 -5.3,10.8 -9.9,10.8 z M 540.8,259 521.2,328.2 H 508.4 L 528,259 Z m -26.4,0 -19.6,69.2 H 482 L 501.6,259 Z m -54.5,23.8 h 13.6 v 16.3 h -13.6 z m 0,29.1 h 13.6 v 16.3 h -13.6 z m -19.8,-0.6 10.3,1 -2.8,15.9 h -39.7 l -1.3,-6.8 25,-28.7 h -14.2 l -2,7 -9.4,-1 1.6,-15.9 h 39.9 l 1,6.8 -25.2,28.7 H 438 Z m -65,-29.4 c -16.3,0 -24.4,11 -24.4,24.3 0,14.5 9.7,23 23.7,23 14.5,0 25,-9.2 25,-23.7 -0.1,-12.6 -8,-23.6 -24.3,-23.6 z m -0.3,37.3 c -7,0 -10.7,-6 -10.7,-13.9 0,-8.6 4.1,-13.5 10.8,-13.5 6.1,0 11.1,4.1 11.1,13.3 -0.1,8.7 -4.5,14.1 -11.2,14.1 z M 339,318.3 h 6 v 9.9 h -19 v -25.6 c 0,-7.9 -2.6,-10.9 -7.7,-10.9 -6.2,0 -8.8,4.4 -8.8,10.8 v 15.8 h 6 v 9.9 h -19 v -25.6 c 0,-7.9 -2.6,-10.9 -7.8,-10.9 -6.2,0 -8.8,4.4 -8.8,10.8 v 15.8 h 8.7 v 9.9 H 261 v -9.9 h 6 v -25.7 h -6 v -9.9 h 19 v 6.8 c 2.7,-4.8 7.4,-7.7 13.8,-7.7 6.5,0 12.6,3.1 14.8,9.8 2.5,-6 7.6,-9.8 14.8,-9.8 8.2,0 15.6,4.9 15.6,15.7 z"
       class="st0" /></g></svg>